<svg width="210" height="210" viewBox="0 0 210 210" fill="none" xmlns="http://www.w3.org/2000/svg">
<g clip-path="url(#clip0_1251_1243)">
<path d="M122.258 94.8244L68.5367 106.499L63.9115 85.2161C60.6929 70.4057 70.1243 55.7369 84.9347 52.5184C99.7451 49.2998 114.414 58.7312 117.632 73.5416L122.258 94.8244ZM75.9864 94.9122L110.671 87.3746L108.114 75.6101C106.036 66.0474 96.5659 59.9585 87.0032 62.0366C77.4405 64.1148 71.3516 73.585 73.4298 83.1476L75.9864 94.9122Z" fill="url(#paint0_linear_1251_1243)"/>
<rect x="43.7949" y="96.6151" width="98.7029" height="74.0272" transform="rotate(-12.2608 43.7949 96.6151)" fill="#B8DEFF"/>
<g filter="url(#filter0_d_1251_1243)">
<path fill-rule="evenodd" clip-rule="evenodd" d="M104.778 122.856C106.83 120.989 107.858 118.107 107.226 115.201C106.283 110.864 102.003 108.112 97.6664 109.054C93.3294 109.997 90.5775 114.277 91.5201 118.614C92.1518 121.521 94.2825 123.715 96.9249 124.563L99.002 134.121C99.473 136.288 101.612 137.666 103.782 137.194C105.952 136.723 107.326 134.582 106.855 132.414L104.778 122.856Z" fill="#F8F9FB"/>
</g>
</g>
<g filter="url(#filter1_d_1251_1243)">
<path d="M160.697 104.282C163.314 107.503 168.047 107.993 171.268 105.375C174.402 102.828 174.941 98.2828 172.559 95.0723C173.071 94.8235 173.565 94.5199 174.026 94.1452C177.248 91.5274 177.737 86.7947 175.119 83.5734C172.501 80.3521 167.769 79.8629 164.547 82.4807C164.086 82.8554 163.688 83.2773 163.34 83.7278C160.684 80.739 156.125 80.3367 152.991 82.8835C149.77 85.5013 149.28 90.234 151.898 93.4553C152.952 94.7527 154.351 95.5906 155.853 95.9761L134.823 113.066C134.098 113.655 133.988 114.721 134.577 115.446L135.503 116.584C136.091 117.309 137.158 117.419 137.882 116.83L143.353 112.385L146.324 116.04L143.277 118.516C142.552 119.105 142.442 120.171 143.031 120.896L143.905 121.971C144.494 122.696 145.56 122.806 146.285 122.217L154.884 115.229C155.609 114.641 155.719 113.574 155.13 112.85L154.256 111.774C153.667 111.049 152.601 110.939 151.876 111.528L149.722 113.278L146.752 109.623L159.036 99.6401C159.054 101.275 159.586 102.914 160.697 104.282ZM169.512 97.4606C170.772 99.0108 170.537 101.287 168.987 102.547C167.437 103.806 165.16 103.571 163.901 102.021C162.641 100.471 162.876 98.1947 164.426 96.9349C165.977 95.6752 168.253 95.9105 169.512 97.4606ZM154.743 90.753C153.483 89.2028 153.718 86.9267 155.268 85.6669C156.819 84.4072 159.095 84.6425 160.354 86.1926C161.614 87.7428 161.379 90.019 159.829 91.2787C158.279 92.5384 156.002 92.3031 154.743 90.753ZM166.446 90.6227C165.133 89.0067 165.378 86.6306 166.994 85.3174C168.61 84.0041 170.986 84.2497 172.3 85.8657C173.613 87.4818 173.367 89.8579 171.751 91.1711C170.135 92.4844 167.759 92.2388 166.446 90.6227Z" fill="#3E4651"/>
</g>
<defs>
<filter id="filter0_d_1251_1243" x="76.335" y="93.8694" width="46.0762" height="58.4173" filterUnits="userSpaceOnUse" color-interpolation-filters="sRGB">
<feFlood flood-opacity="0" result="BackgroundImageFix"/>
<feColorMatrix in="SourceAlpha" type="matrix" values="0 0 0 0 0 0 0 0 0 0 0 0 0 0 0 0 0 0 127 0" result="hardAlpha"/>
<feOffset/>
<feGaussianBlur stdDeviation="7.5"/>
<feComposite in2="hardAlpha" operator="out"/>
<feColorMatrix type="matrix" values="0 0 0 0 0.294118 0 0 0 0 0.317647 0 0 0 0 0.356863 0 0 0 0.08 0"/>
<feBlend mode="normal" in2="BackgroundImageFix" result="effect1_dropShadow_1251_1243"/>
<feBlend mode="normal" in="SourceGraphic" in2="effect1_dropShadow_1251_1243" result="shape"/>
</filter>
<filter id="filter1_d_1251_1243" x="114.199" y="60.7974" width="82.6035" height="81.7986" filterUnits="userSpaceOnUse" color-interpolation-filters="sRGB">
<feFlood flood-opacity="0" result="BackgroundImageFix"/>
<feColorMatrix in="SourceAlpha" type="matrix" values="0 0 0 0 0 0 0 0 0 0 0 0 0 0 0 0 0 0 127 0" result="hardAlpha"/>
<feOffset/>
<feGaussianBlur stdDeviation="10"/>
<feComposite in2="hardAlpha" operator="out"/>
<feColorMatrix type="matrix" values="0 0 0 0 0.454167 0 0 0 0 0.6725 0 0 0 0 1 0 0 0 0.3 0"/>
<feBlend mode="normal" in2="BackgroundImageFix" result="effect1_dropShadow_1251_1243"/>
<feBlend mode="normal" in="SourceGraphic" in2="effect1_dropShadow_1251_1243" result="shape"/>
</filter>
<linearGradient id="paint0_linear_1251_1243" x1="84.9347" y1="52.5184" x2="100" y2="127" gradientUnits="userSpaceOnUse">
<stop stop-color="#B8DEFF"/>
<stop offset="1" stop-color="#4191C3"/>
</linearGradient>
<clipPath id="clip0_1251_1243">
<rect width="129.872" height="129.872" fill="white" transform="translate(19.4644 58.0444) rotate(-12.2608)"/>
</clipPath>
</defs>
</svg>
