<svg width="20" height="20" viewBox="0 0 20 20" fill="none" xmlns="http://www.w3.org/2000/svg">
<path d="M14.5 1.75H6C3.79086 1.75 2 3.54086 2 5.75V14.25C2 16.4591 3.79086 18.25 6 18.25H14.5C16.7091 18.25 18.5 16.4591 18.5 14.25V5.75C18.5 3.54086 16.7091 1.75 14.5 1.75Z" fill="#EF4452"/>
<path d="M13.4999 14.25C13.2439 14.25 12.9884 14.1525 12.7929 13.957L6.29287 7.457C5.90237 7.0665 5.90237 6.4335 6.29287 6.043C6.68338 5.6525 7.31637 5.6525 7.70687 6.043L14.2069 12.543C14.5974 12.9335 14.5974 13.5665 14.2069 13.957C14.0114 14.1525 13.7559 14.25 13.4999 14.25Z" fill="white"/>
<path d="M6.99987 14.25C6.74387 14.25 6.48838 14.1525 6.29287 13.957C5.90237 13.5665 5.90237 12.9335 6.29287 12.543L12.7929 6.043C13.1834 5.6525 13.8164 5.6525 14.2069 6.043C14.5974 6.4335 14.5974 7.0665 14.2069 7.457L7.70687 13.957C7.51137 14.1525 7.25587 14.25 6.99987 14.25Z" fill="white"/>
</svg>
