<svg width="20" height="18" viewBox="0 0 20 18" fill="none" xmlns="http://www.w3.org/2000/svg">
<g clip-path="url(#clip0_1061_3030)">
<rect x="0.769043" y="0.692383" width="18.4615" height="16.6154" rx="2" fill="#3E4651"/>
<path fill-rule="evenodd" clip-rule="evenodd" d="M5.19392 13.2003H10.4206C10.4882 13.2003 10.5537 13.194 10.6165 13.1822H14.2343C14.8782 13.1822 15.2682 12.4562 14.9204 11.9038L12.8455 8.60877C12.525 8.0994 11.795 8.0994 11.4745 8.60877L10.4236 10.2776L8.67105 7.54626C8.26734 6.91655 7.34773 6.91655 6.94403 7.54626L4.33014 11.6198C3.89208 12.3027 4.38221 13.2003 5.19392 13.2003Z" fill="#F0F1F5"/>
<path d="M14.1011 7.3582C13.4629 7.3582 12.9448 6.84017 12.9448 6.20193C12.9448 5.56369 13.4629 5.04565 14.1011 5.04565C14.7393 5.04565 15.2574 5.56321 15.2574 6.20193C15.2574 6.84065 14.7398 7.3582 14.1011 7.3582Z" fill="#F0F1F5"/>
</g>
<defs>
<clipPath id="clip0_1061_3030">
<rect width="20" height="18" fill="white"/>
</clipPath>
</defs>
</svg>
