<svg width="16" height="16" viewBox="0 0 16 16" fill="none" xmlns="http://www.w3.org/2000/svg">
<path d="M7.81724 13.4856V3.6113M7.81724 13.4856L6.84559 12.5139C6.29691 11.9653 5.55308 11.657 4.77713 11.657H2.33089C1.92693 11.657 1.6001 11.3295 1.6001 10.9256V3.24559C1.6001 2.84163 1.92757 2.51416 2.33153 2.51416H5.14251C5.91846 2.51416 6.66263 2.8224 7.2113 3.37108L7.81724 3.97702L8.42317 3.37108C8.97185 2.8224 9.71602 2.51416 10.492 2.51416H13.6687C14.0726 2.51416 14.4001 2.84163 14.4001 3.24559V10.9256C14.4001 11.3295 14.0726 11.657 13.6687 11.657H10.8577C10.0817 11.657 9.33757 11.9653 8.78889 12.5139L7.81724 13.4856Z" stroke="#3E4651" stroke-width="1.3" stroke-linecap="round" stroke-linejoin="round"/>
</svg>
