<svg width="16" height="16" viewBox="0 0 16 16" fill="none" xmlns="http://www.w3.org/2000/svg">
<path d="M6.6665 7.16667C6.94265 7.16667 7.1665 7.39052 7.1665 7.66667V10.6667C7.1665 10.9428 6.94265 11.1667 6.6665 11.1667C6.39036 11.1667 6.1665 10.9428 6.1665 10.6667V7.66667C6.1665 7.39052 6.39036 7.16667 6.6665 7.16667Z" fill="#EF5350"/>
<path d="M9.33317 7.16667C9.60931 7.16667 9.83317 7.39052 9.83317 7.66667V10.6667C9.83317 10.9428 9.60931 11.1667 9.33317 11.1667C9.05703 11.1667 8.83317 10.9428 8.83317 10.6667V7.66667C8.83317 7.39052 9.05703 7.16667 9.33317 7.16667Z" fill="#EF5350"/>
<path fill-rule="evenodd" clip-rule="evenodd" d="M6.77991 1.5C6.17314 1.5 5.66766 1.96511 5.61727 2.56978L5.53975 3.5H2.6665C2.39036 3.5 2.1665 3.72386 2.1665 4C2.1665 4.27614 2.39036 4.5 2.6665 4.5H2.85014L3.12244 12.3965C3.15648 13.3839 3.96675 14.1667 4.95468 14.1667H11.045C12.033 14.1667 12.8432 13.3839 12.8773 12.3965L13.1496 4.5H13.3332C13.6093 4.5 13.8332 4.27614 13.8332 4C13.8332 3.72386 13.6093 3.5 13.3332 3.5H10.4599L10.3824 2.56978C10.332 1.96511 9.8265 1.5 9.21973 1.5H6.77991ZM9.45642 3.5L9.38582 2.65283C9.37862 2.56644 9.30641 2.5 9.21973 2.5H6.77991C6.69323 2.5 6.62102 2.56644 6.61382 2.65283L6.54322 3.5H9.45642ZM4.12184 12.3621L3.85074 4.5H12.149L11.8779 12.362C11.8624 12.8108 11.4941 13.1667 11.045 13.1667H4.95468C4.50562 13.1667 4.13732 12.8108 4.12184 12.3621Z" fill="#EF5350"/>
</svg>
