<svg width="20" height="20" viewBox="0 0 20 20" fill="none" xmlns="http://www.w3.org/2000/svg">
<g clip-path="url(#clip0_1624_267)">
<path d="M14.25 1.75H5.75C3.54086 1.75 1.75 3.54086 1.75 5.75V14.25C1.75 16.4591 3.54086 18.25 5.75 18.25H14.25C16.4591 18.25 18.25 16.4591 18.25 14.25V5.75C18.25 3.54086 16.4591 1.75 14.25 1.75Z" fill="#00BD79"/>
<path d="M9.05123 13.343C8.82073 13.343 8.59073 13.2555 8.41473 13.0795L5.42573 10.0905C5.07423 9.739 5.07423 9.169 5.42573 8.8175C5.77723 8.4665 6.34723 8.4665 6.69873 8.8175L9.05123 11.1705L13.3007 6.921C13.6527 6.57 14.2227 6.57 14.5737 6.921C14.9252 7.2725 14.9252 7.8425 14.5737 8.194L9.68773 13.0795C9.51173 13.255 9.28173 13.343 9.05123 13.343Z" fill="white"/>
</g>
<defs>
<clipPath id="clip0_1624_267">
<rect width="20" height="20" fill="white"/>
</clipPath>
</defs>
</svg>
