<svg width="90" height="32" viewBox="0 0 90 32" fill="none" xmlns="http://www.w3.org/2000/svg">
<path d="M84.4078 13.2639C84.0558 12.6186 83.5718 12.1273 82.9558 11.7899C82.3398 11.4526 81.6211 11.2839 80.7998 11.2839C79.8904 11.2839 79.0838 11.4893 78.3798 11.8999C77.6758 12.3106 77.1258 12.8973 76.7298 13.6599C76.3338 14.4226 76.1358 15.3026 76.1358 16.2999C76.1358 17.3266 76.3338 18.2213 76.7298 18.9839C77.1404 19.7466 77.7051 20.3333 78.4238 20.7439C79.1424 21.1546 79.9784 21.3599 80.9318 21.3599C82.1051 21.3599 83.0658 21.0519 83.8138 20.4359C84.5618 19.8053 85.0531 18.9326 85.2878 17.8179H80.0078V15.4639H88.3238V18.1479C88.1184 19.2186 87.6784 20.2086 87.0038 21.1179C86.3291 22.0273 85.4564 22.7606 84.3858 23.3179C83.3298 23.8606 82.1418 24.1319 80.8218 24.1319C79.3404 24.1319 77.9984 23.8019 76.7958 23.1419C75.6078 22.4673 74.6691 21.5359 73.9798 20.3479C73.3051 19.1599 72.9678 17.8106 72.9678 16.2999C72.9678 14.7893 73.3051 13.4399 73.9798 12.2519C74.6691 11.0493 75.6078 10.1179 76.7958 9.45792C77.9984 8.78326 79.3331 8.44592 80.7998 8.44592C82.5304 8.44592 84.0338 8.87126 85.3098 9.72192C86.5858 10.5579 87.4658 11.7386 87.9498 13.2639H84.4078Z" fill="#3E4651"/>
<path d="M60.9307 24.1539C59.4934 24.1539 58.1734 23.8166 56.9707 23.142C55.768 22.4673 54.8147 21.5359 54.1107 20.3479C53.4067 19.1453 53.0547 17.7886 53.0547 16.278C53.0547 14.782 53.4067 13.4399 54.1107 12.2519C54.8147 11.0493 55.768 10.1106 56.9707 9.43595C58.1734 8.76128 59.4934 8.42395 60.9307 8.42395C62.3827 8.42395 63.7027 8.76128 64.8907 9.43595C66.0934 10.1106 67.0394 11.0493 67.7287 12.2519C68.4327 13.4399 68.7847 14.782 68.7847 16.278C68.7847 17.7886 68.4327 19.1453 67.7287 20.3479C67.0394 21.5359 66.0934 22.4673 64.8907 23.142C63.688 23.8166 62.368 24.1539 60.9307 24.1539ZM60.9307 21.4039C61.8547 21.4039 62.6687 21.1986 63.3727 20.788C64.0767 20.3626 64.6267 19.7613 65.0227 18.9839C65.4187 18.2066 65.6167 17.3046 65.6167 16.278C65.6167 15.2513 65.4187 14.3566 65.0227 13.594C64.6267 12.8166 64.0767 12.2226 63.3727 11.8119C62.6687 11.4013 61.8547 11.1959 60.9307 11.1959C60.0067 11.1959 59.1854 11.4013 58.4667 11.8119C57.7627 12.2226 57.2127 12.8166 56.8167 13.594C56.4207 14.3566 56.2227 15.2513 56.2227 16.278C56.2227 17.3046 56.4207 18.2066 56.8167 18.9839C57.2127 19.7613 57.7627 20.3626 58.4667 20.788C59.1854 21.1986 60.0067 21.4039 60.9307 21.4039Z" fill="#3E4651"/>
<path d="M48.1316 8.64392V23.9999H45.0516V17.4659H38.4736V23.9999H35.3936V8.64392H38.4736V14.9579H45.0516V8.64392H48.1316Z" fill="#3E4651"/>
<path d="M15.1182 16.2999C15.1182 14.7893 15.4555 13.4399 16.1302 12.2519C16.8195 11.0493 17.7508 10.1179 18.9242 9.45792C20.1122 8.78326 21.4395 8.44592 22.9062 8.44592C24.6222 8.44592 26.1255 8.88592 27.4162 9.76592C28.7068 10.6459 29.6088 11.8633 30.1222 13.4179H26.5802C26.2282 12.6846 25.7295 12.1346 25.0842 11.7679C24.4535 11.4013 23.7202 11.2179 22.8842 11.2179C21.9895 11.2179 21.1902 11.4306 20.4862 11.8559C19.7968 12.2666 19.2542 12.8533 18.8582 13.6159C18.4768 14.3786 18.2862 15.2733 18.2862 16.2999C18.2862 17.3119 18.4768 18.2066 18.8582 18.9839C19.2542 19.7466 19.7968 20.3406 20.4862 20.7659C21.1902 21.1766 21.9895 21.3819 22.8842 21.3819C23.7202 21.3819 24.4535 21.1986 25.0842 20.8319C25.7295 20.4506 26.2282 19.8933 26.5802 19.1599H30.1222C29.6088 20.7293 28.7068 21.9539 27.4162 22.8339C26.1402 23.6993 24.6368 24.1319 22.9062 24.1319C21.4395 24.1319 20.1122 23.8019 18.9242 23.1419C17.7508 22.4673 16.8195 21.5359 16.1302 20.3479C15.4555 19.1599 15.1182 17.8106 15.1182 16.2999Z" fill="#3E4651"/>
<path d="M4.59758 11.1299V14.9799H9.76758V17.4219H4.59758V21.492H10.4276V23.9999H1.51758V8.62195H10.4276V11.1299H4.59758Z" fill="#3E4651"/>
</svg>
