<svg width="20" height="20" viewBox="0 0 20 20" fill="none" xmlns="http://www.w3.org/2000/svg">
<path d="M8.21353 2.945L1.25603 14.996C0.528527 16.256 1.43803 17.831 2.89303 17.831H16.8085C18.2635 17.831 19.1725 16.256 18.4455 14.996L11.4875 2.945C10.76 1.685 8.94103 1.685 8.21353 2.945Z" fill="#FFCD00"/>
<path d="M9.99969 13.7735C9.47769 13.7735 9.05469 14.1965 9.05469 14.7185C9.05469 15.2405 9.47769 15.6635 9.99969 15.6635C10.5217 15.6635 10.9447 15.2405 10.9447 14.7185C10.9447 14.1965 10.5217 13.7735 9.99969 13.7735Z" fill="#303D4C"/>
<path d="M9.99922 12.539C9.55722 12.539 9.19922 12.181 9.19922 11.739V7.8015C9.19922 7.3595 9.55722 7.0015 9.99922 7.0015C10.4412 7.0015 10.7992 7.3595 10.7992 7.8015V11.739C10.7992 12.181 10.4412 12.539 9.99922 12.539Z" fill="#303D4C"/>
</svg>
