<svg width="20" height="20" viewBox="0 0 20 20" fill="none" xmlns="http://www.w3.org/2000/svg">
<path d="M3.08398 5.96201L3.53148 17.354C3.56348 18.1635 4.22898 18.8035 5.03898 18.8035H15.0545C15.8645 18.8035 16.53 18.1635 16.562 17.354L17.0095 5.96201H3.08398Z" fill="#6B7683"/>
<path d="M3.1748 8.2885L3.5308 17.354C3.5628 18.1635 4.2283 18.8035 5.0383 18.8035H15.0538C15.8638 18.8035 16.5293 18.1635 16.5613 17.354L16.9173 8.2885H3.1748Z" fill="#8A94A0"/>
<path d="M8.31403 15.3655C7.97903 15.3655 7.70703 15.094 7.70703 14.7585V10.562C7.70703 10.2265 7.97903 9.955 8.31403 9.955C8.64903 9.955 8.92103 10.2265 8.92103 10.562V14.7585C8.92103 15.094 8.64903 15.3655 8.31403 15.3655Z" fill="#4B596A"/>
<path d="M11.7789 15.3655C11.4439 15.3655 11.1719 15.094 11.1719 14.7585V10.562C11.1719 10.2265 11.4439 9.955 11.7789 9.955C12.1139 9.955 12.3859 10.2265 12.3859 10.562V14.7585C12.3859 15.094 12.1139 15.3655 11.7789 15.3655Z" fill="#4B596A"/>
<path d="M13.4608 4.8785C13.1258 4.8785 12.8538 4.607 12.8538 4.2715V3.4795C12.8538 2.89 12.3743 2.41 11.7848 2.41H8.31132C7.72182 2.41 7.24232 2.89 7.24232 3.4795V4.2715C7.24232 4.607 6.97032 4.8785 6.63532 4.8785C6.30032 4.8785 6.02832 4.607 6.02832 4.2715V3.4795C6.02832 2.22 7.05282 1.1965 8.31182 1.1965H11.7853C13.0443 1.1965 14.0688 2.2205 14.0688 3.4795V4.2715C14.0688 4.607 13.7968 4.8785 13.4618 4.8785H13.4608Z" fill="#4B596A"/>
<path d="M17.1705 4.26851H2.7545C2.3378 4.26851 2 4.60631 2 5.02301V6.02851C2 6.44521 2.3378 6.78301 2.7545 6.78301H17.1705C17.5872 6.78301 17.925 6.44521 17.925 6.02851V5.02301C17.925 4.60631 17.5872 4.26851 17.1705 4.26851Z" fill="#8A94A0"/>
</svg>
