<svg width="210" height="210" viewBox="0 0 210 210" fill="none" xmlns="http://www.w3.org/2000/svg">
<path d="M56.5883 152.663C46.9079 108.63 40.8998 87.6085 29.0339 57.5407L106.905 41.0081C113.614 56.151 125.514 111.212 130.626 136.849L56.5883 152.663Z" fill="#ADDBEF"/>
<path d="M68.2196 167.566C68.2196 120.485 57.946 75.6707 50.5981 60.6556L129.123 51.3746C142.081 86.7935 147.489 140.238 148.128 158.927C127.618 166.211 87.6568 169.294 68.2196 167.566Z" fill="white"/>
<path d="M108.82 134.153L112.248 128.618C114.224 125.428 116.866 122.703 119.994 120.631L169.202 88.0356C170.294 87.4057 175.911 86.4608 178.719 90.87C181.126 94.6491 179.655 98.7433 178.251 99.6881L127.957 132.496C124.525 134.734 120.612 136.13 116.538 136.569L110.735 137.195C109.08 137.373 107.944 135.569 108.82 134.153Z" fill="#C7E5FF"/>
<path d="M74.6987 78.5867L120.052 73.4034" stroke="black"/>
<path d="M77.2903 88.0893L122.644 82.9061" stroke="black"/>
<path d="M79.0181 97.5919L111.845 94.5684" stroke="black"/>
</svg>
