<svg width="16" height="16" viewBox="0 0 16 16" fill="none" xmlns="http://www.w3.org/2000/svg">
<path fill-rule="evenodd" clip-rule="evenodd" d="M12.3509 8.35624L6.52619 14.1809C6.33107 14.3761 6.07311 14.4957 5.79812 14.5186L2.82664 14.7662C2.10767 14.8262 1.5072 14.2257 1.56712 13.5067L1.81474 10.5352C1.83766 10.2602 1.9573 10.0023 2.15242 9.80716L10.175 1.78458C10.6306 1.32897 11.3693 1.32897 11.8249 1.78458L14.5488 4.50844C15.0044 4.96405 15.0044 5.70274 14.5488 6.15835L12.3561 8.35101L12.3535 8.35363L12.3509 8.35624ZM10.8821 2.49169C10.9472 2.4266 11.0527 2.4266 11.1178 2.49169L13.8417 5.21554C13.9068 5.28063 13.9068 5.38616 13.8417 5.45125L11.9999 7.29296L9.04039 4.33341L10.8821 2.49169ZM8.33328 5.04051L2.85953 10.5143C2.83165 10.5421 2.81456 10.579 2.81129 10.6183L2.56366 13.5898C2.5551 13.6925 2.64088 13.7783 2.74359 13.7697L5.71508 13.5221C5.75436 13.5188 5.79121 13.5017 5.81909 13.4738L11.2928 8.00007L8.33328 5.04051Z" fill="#24282F"/>
</svg>
